<?xml version="1.0" encoding="UTF-8"?>
<svg width="700pt" height="700pt" version="1.1" viewBox="0 0 700 700" xmlns="http://www.w3.org/2000/svg" xmlns:xlink="http://www.w3.org/1999/xlink">
 <defs>
  <symbol id="u" overflow="visible">
   <path d="m10.719-0.64062c-0.55469 0.28125-1.1328 0.49609-1.7344 0.64062-0.59375 0.15625-1.2148 0.23438-1.8594 0.23438-1.9492 0-3.4922-0.53906-4.625-1.625-1.1367-1.0938-1.7031-2.5703-1.7031-4.4375 0-1.8633 0.56641-3.3359 1.7031-4.4219 1.1328-1.082 2.6758-1.625 4.625-1.625 0.64453 0 1.2656 0.074219 1.8594 0.21875 0.60156 0.14844 1.1797 0.35938 1.7344 0.64062v2.4219c-0.55469-0.38281-1.1016-0.66406-1.6406-0.84375-0.54297-0.17578-1.1172-0.26562-1.7188-0.26562-1.0742 0-1.918 0.34375-2.5312 1.0312-0.61719 0.6875-0.92188 1.6367-0.92188 2.8438 0 1.2109 0.30469 2.1562 0.92188 2.8438 0.61328 0.6875 1.457 1.0312 2.5312 1.0312 0.60156 0 1.1758-0.085937 1.7188-0.26562 0.53906-0.17578 1.0859-0.45703 1.6406-0.84375z"/>
  </symbol>
  <symbol id="e" overflow="visible">
   <path d="m7.8438-6.375c-0.24219-0.11328-0.48438-0.19531-0.73438-0.25-0.24219-0.050781-0.48047-0.078125-0.71875-0.078125-0.71875 0-1.2773 0.23047-1.6719 0.6875-0.38672 0.46094-0.57812 1.1211-0.57812 1.9844v4.0312h-2.7969v-8.75h2.7969v1.4375c0.36328-0.57031 0.77344-0.98828 1.2344-1.25 0.46875-0.26953 1.0312-0.40625 1.6875-0.40625 0.09375 0 0.19141 0.007812 0.29688 0.015625 0.11328 0.011719 0.27344 0.027344 0.48438 0.046875z"/>
  </symbol>
  <symbol id="b" overflow="visible">
   <path d="m10.078-4.4062v0.79688h-6.5312c0.0625 0.65625 0.29688 1.1523 0.70312 1.4844 0.40625 0.32422 0.97266 0.48438 1.7031 0.48438 0.59375 0 1.1953-0.082031 1.8125-0.25 0.61328-0.17578 1.25-0.44141 1.9062-0.79688v2.1562c-0.66797 0.25-1.3359 0.4375-2 0.5625-0.65625 0.13281-1.3125 0.20312-1.9688 0.20312-1.5859 0-2.8203-0.39844-3.7031-1.2031-0.875-0.8125-1.3125-1.9453-1.3125-3.4062 0-1.4258 0.42969-2.5469 1.2969-3.3594 0.86328-0.82031 2.0508-1.2344 3.5625-1.2344 1.375 0 2.4727 0.41797 3.2969 1.25 0.82031 0.82422 1.2344 1.9297 1.2344 3.3125zm-2.875-0.92188c0-0.53125-0.15625-0.95703-0.46875-1.2812-0.30469-0.33203-0.70312-0.5-1.2031-0.5-0.54297 0-0.98438 0.15625-1.3281 0.46875-0.33594 0.30469-0.54297 0.74219-0.625 1.3125z"/>
  </symbol>
  <symbol id="d" overflow="visible">
   <path d="m5.2656-3.9375c-0.58594 0-1.0234 0.10156-1.3125 0.29688-0.29297 0.19922-0.4375 0.49219-0.4375 0.875 0 0.35547 0.11328 0.63281 0.34375 0.82812 0.23828 0.19922 0.57031 0.29688 1 0.29688 0.51953 0 0.95703-0.1875 1.3125-0.5625 0.36328-0.375 0.54688-0.84766 0.54688-1.4219v-0.3125zm4.2812-1.0625v5h-2.8281v-1.2969c-0.375 0.53125-0.79688 0.92188-1.2656 1.1719-0.46875 0.23828-1.0391 0.35938-1.7031 0.35938-0.90625 0-1.6484-0.26562-2.2188-0.79688-0.5625-0.53125-0.84375-1.2188-0.84375-2.0625 0-1.0312 0.35156-1.7852 1.0625-2.2656 0.70703-0.47656 1.8164-0.71875 3.3281-0.71875h1.6406v-0.21875c0-0.4375-0.17969-0.75781-0.53125-0.96875-0.34375-0.20703-0.88672-0.3125-1.625-0.3125-0.59375 0-1.1523 0.0625-1.6719 0.1875-0.51172 0.11719-0.99219 0.29297-1.4375 0.53125v-2.125c0.60156-0.14453 1.207-0.25391 1.8125-0.32812 0.60156-0.082031 1.207-0.125 1.8125-0.125 1.5703 0 2.707 0.3125 3.4062 0.9375 0.70703 0.625 1.0625 1.6367 1.0625 3.0312z"/>
  </symbol>
  <symbol id="c" overflow="visible">
   <path d="m4.4062-11.234v2.4844h2.875v2h-2.875v3.7031c0 0.40625 0.078125 0.68359 0.23438 0.82812 0.16406 0.14844 0.48828 0.21875 0.96875 0.21875h1.4375v2h-2.4062c-1.1055 0-1.8867-0.22656-2.3438-0.6875-0.46094-0.46875-0.6875-1.2539-0.6875-2.3594v-3.7031h-1.3906v-2h1.3906v-2.4844z"/>
  </symbol>
  <symbol id="k" overflow="visible">
   <path d="m7.2969-7.4688v-4.6875h2.8125v12.156h-2.8125v-1.2656c-0.38672 0.51172-0.8125 0.89062-1.2812 1.1406-0.46094 0.23828-0.99219 0.35938-1.5938 0.35938-1.0859 0-1.9766-0.42578-2.6719-1.2812-0.6875-0.86328-1.0312-1.9727-1.0312-3.3281 0-1.3438 0.34375-2.4414 1.0312-3.2969 0.69531-0.86328 1.5859-1.2969 2.6719-1.2969 0.60156 0 1.1328 0.125 1.5938 0.375 0.46875 0.24219 0.89453 0.61719 1.2812 1.125zm-1.8438 5.6562c0.60156 0 1.0625-0.21875 1.375-0.65625s0.46875-1.0703 0.46875-1.9062c0-0.83203-0.15625-1.4688-0.46875-1.9062s-0.77344-0.65625-1.375-0.65625c-0.59375 0-1.0469 0.21875-1.3594 0.65625s-0.46875 1.0742-0.46875 1.9062c0 0.83594 0.15625 1.4688 0.46875 1.9062s0.76562 0.65625 1.3594 0.65625z"/>
  </symbol>
  <symbol id="j" overflow="visible">
   <path d="m6-1.8125c0.60156 0 1.0625-0.21875 1.375-0.65625s0.46875-1.0703 0.46875-1.9062c0-0.83203-0.15625-1.4688-0.46875-1.9062s-0.77344-0.65625-1.375-0.65625c-0.59375 0-1.0547 0.22656-1.375 0.67188-0.32422 0.4375-0.48438 1.0703-0.48438 1.8906 0 0.83594 0.16016 1.4688 0.48438 1.9062 0.32031 0.4375 0.78125 0.65625 1.375 0.65625zm-1.8594-5.6562c0.38281-0.50781 0.8125-0.88281 1.2812-1.125 0.46875-0.25 1.0078-0.375 1.625-0.375 1.0703 0 1.9531 0.43359 2.6406 1.2969 0.69531 0.85547 1.0469 1.9531 1.0469 3.2969 0 1.3555-0.35156 2.4648-1.0469 3.3281-0.6875 0.85547-1.5703 1.2812-2.6406 1.2812-0.61719 0-1.1562-0.12109-1.625-0.35938-0.46875-0.25-0.89844-0.62891-1.2812-1.1406v1.2656h-2.7969v-12.156h2.7969z"/>
  </symbol>
  <symbol id="g" overflow="visible">
   <path d="m0.20312-8.75h2.7969l2.3438 5.9375 2-5.9375h2.7969l-3.6719 9.5781c-0.375 0.97656-0.80859 1.6602-1.2969 2.0469-0.49219 0.38281-1.1406 0.57812-1.9531 0.57812h-1.6094v-1.8281h0.875c0.46875 0 0.8125-0.078125 1.0312-0.23438 0.21875-0.14844 0.38281-0.41797 0.5-0.8125l0.078125-0.23438z"/>
  </symbol>
  <symbol id="i" overflow="visible">
   <path d="m11.953-0.875c-0.75 0.36719-1.5312 0.64062-2.3438 0.82812-0.80469 0.1875-1.6328 0.28125-2.4844 0.28125-1.9492 0-3.4922-0.53906-4.625-1.625-1.1367-1.0938-1.7031-2.5703-1.7031-4.4375 0-1.875 0.57812-3.3477 1.7344-4.4219 1.1562-1.082 2.7383-1.625 4.75-1.625 0.78125 0 1.5234 0.074219 2.2344 0.21875 0.70703 0.14844 1.3789 0.35938 2.0156 0.64062v2.4219c-0.65625-0.375-1.3086-0.64844-1.9531-0.82812-0.63672-0.1875-1.2773-0.28125-1.9219-0.28125-1.1992 0-2.125 0.33984-2.7812 1.0156-0.64844 0.66797-0.96875 1.6211-0.96875 2.8594 0 1.2422 0.3125 2.1992 0.9375 2.875 0.625 0.66797 1.5156 1 2.6719 1 0.3125 0 0.59766-0.019531 0.85938-0.0625 0.26953-0.039063 0.51562-0.10156 0.73438-0.1875v-2.2656h-1.8438v-2.0156h4.6875z"/>
  </symbol>
  <symbol id="f" overflow="visible">
   <path d="m10.141-5.3281v5.3281h-2.8125v-4.0781c0-0.75781-0.015625-1.2812-0.046875-1.5625-0.03125-0.28906-0.089844-0.50391-0.17188-0.64062-0.11719-0.17578-0.26562-0.31641-0.45312-0.42188-0.1875-0.10156-0.40234-0.15625-0.64062-0.15625-0.58594 0-1.043 0.23047-1.375 0.6875-0.33594 0.44922-0.5 1.0703-0.5 1.8594v4.3125h-2.7969v-8.75h2.7969v1.2812c0.42578-0.50781 0.875-0.88281 1.3438-1.125 0.47656-0.25 1.0039-0.375 1.5781-0.375 1.0078 0 1.7734 0.3125 2.2969 0.9375 0.51953 0.61719 0.78125 1.5156 0.78125 2.7031z"/>
  </symbol>
  <symbol id="t" overflow="visible">
   <path d="m1.4688-11.672h3.0156v4.2656l4.3281-4.2656h3.5l-5.625 5.5312 6.2031 6.1406h-3.7656l-4.6406-4.5938v4.5938h-3.0156z"/>
  </symbol>
  <symbol id="h" overflow="visible">
   <path d="m10.141-5.3281v5.3281h-2.8125v-4.0625c0-0.76953-0.015625-1.2969-0.046875-1.5781-0.03125-0.28906-0.089844-0.50391-0.17188-0.64062-0.11719-0.17578-0.26562-0.31641-0.45312-0.42188-0.1875-0.10156-0.40234-0.15625-0.64062-0.15625-0.58594 0-1.043 0.23047-1.375 0.6875-0.33594 0.44922-0.5 1.0703-0.5 1.8594v4.3125h-2.7969v-12.156h2.7969v4.6875c0.42578-0.50781 0.875-0.88281 1.3438-1.125 0.47656-0.25 1.0039-0.375 1.5781-0.375 1.0078 0 1.7734 0.3125 2.2969 0.9375 0.51953 0.61719 0.78125 1.5156 0.78125 2.7031z"/>
  </symbol>
  <symbol id="a" overflow="visible">
   <path d="m5.5156-6.9688c-0.625 0-1.1016 0.22656-1.4219 0.67188-0.32422 0.44922-0.48438 1.0898-0.48438 1.9219 0 0.84375 0.16016 1.4922 0.48438 1.9375 0.32031 0.4375 0.79688 0.65625 1.4219 0.65625 0.60156 0 1.0664-0.21875 1.3906-0.65625 0.32031-0.44531 0.48438-1.0938 0.48438-1.9375 0-0.83203-0.16406-1.4727-0.48438-1.9219-0.32422-0.44531-0.78906-0.67188-1.3906-0.67188zm0-2c1.5 0 2.6719 0.40625 3.5156 1.2188 0.85156 0.8125 1.2812 1.9375 1.2812 3.375s-0.42969 2.5703-1.2812 3.3906c-0.84375 0.8125-2.0156 1.2188-3.5156 1.2188-1.5117 0-2.6953-0.40625-3.5469-1.2188-0.85547-0.82031-1.2812-1.9531-1.2812-3.3906s0.42578-2.5625 1.2812-3.375c0.85156-0.8125 2.0352-1.2188 3.5469-1.2188z"/>
  </symbol>
  <symbol id="s" overflow="visible">
   <path d="m1.4688-11.672h3.0156v9.3906h5.2812v2.2812h-8.2969z"/>
  </symbol>
  <symbol id="r" overflow="visible">
   <path d="m7.1094-12.156v1.8281h-1.5469c-0.39844 0-0.67188 0.074219-0.82812 0.21875-0.15625 0.14844-0.23438 0.39844-0.23438 0.75v0.60938h2.3906v2h-2.3906v6.75h-2.7969v-6.75h-1.3906v-2h1.3906v-0.60938c0-0.95703 0.26562-1.6602 0.79688-2.1094 0.53125-0.45703 1.3516-0.6875 2.4688-0.6875z"/>
  </symbol>
  <symbol id="q" overflow="visible">
   <path d="m9.4531-7.2969c0.35156-0.53906 0.77344-0.95312 1.2656-1.2344 0.48828-0.28906 1.0234-0.4375 1.6094-0.4375 1 0 1.7578 0.3125 2.2812 0.9375 0.53125 0.61719 0.79688 1.5156 0.79688 2.7031v5.3281h-2.8125v-4.5625c0.007812-0.070312 0.015625-0.14453 0.015625-0.21875v-0.3125c0-0.61328-0.09375-1.0625-0.28125-1.3438-0.17969-0.28125-0.46875-0.42188-0.875-0.42188-0.53125 0-0.94531 0.21875-1.2344 0.65625-0.28125 0.4375-0.42969 1.0742-0.4375 1.9062v4.2969h-2.8125v-4.5625c0-0.96875-0.085938-1.5938-0.25-1.875-0.16797-0.28125-0.46484-0.42188-0.89062-0.42188-0.54297 0-0.96094 0.22656-1.25 0.67188-0.29297 0.4375-0.4375 1.0625-0.4375 1.875v4.3125h-2.8125v-8.75h2.8125v1.2812c0.34375-0.5 0.73828-0.875 1.1875-1.125 0.44531-0.25 0.9375-0.375 1.4688-0.375 0.60156 0 1.1328 0.14844 1.5938 0.4375 0.46875 0.29297 0.82031 0.70312 1.0625 1.2344z"/>
  </symbol>
  <symbol id="p" overflow="visible">
   <path d="m1.4688-11.672h3.3594l4.25 8v-8h2.8438v11.672h-3.3594l-4.2344-8v8h-2.8594z"/>
  </symbol>
  <symbol id="o" overflow="visible">
   <path d="m1.25-3.4062v-5.3438h2.8125v0.875c0 0.46875-0.007812 1.0625-0.015625 1.7812v1.4375c0 0.69922 0.015625 1.2031 0.046875 1.5156 0.039062 0.3125 0.10938 0.53906 0.20312 0.67188 0.11328 0.1875 0.25781 0.33594 0.4375 0.4375 0.1875 0.09375 0.39844 0.14062 0.64062 0.14062 0.58203 0 1.0391-0.22266 1.375-0.67188 0.33203-0.44531 0.5-1.0703 0.5-1.875v-4.3125h2.7969v8.75h-2.7969v-1.2656c-0.41797 0.51172-0.86719 0.89062-1.3438 1.1406-0.46875 0.23828-0.98438 0.35938-1.5469 0.35938-1.0117 0-1.7812-0.3125-2.3125-0.9375s-0.79688-1.5234-0.79688-2.7031z"/>
  </symbol>
  <symbol id="n" overflow="visible">
   <path d="m1.4688-11.672h5c1.4766 0 2.6133 0.33594 3.4062 1 0.80078 0.65625 1.2031 1.5938 1.2031 2.8125s-0.40234 2.1641-1.2031 2.8281c-0.79297 0.65625-1.9297 0.98438-3.4062 0.98438h-1.9844v4.0469h-3.0156zm3.0156 2.1875v3.25h1.6562c0.58203 0 1.0312-0.14062 1.3438-0.42188 0.32031-0.28125 0.48438-0.67969 0.48438-1.2031 0-0.51953-0.16406-0.92188-0.48438-1.2031-0.3125-0.28125-0.76172-0.42188-1.3438-0.42188z"/>
  </symbol>
  <symbol id="m" overflow="visible">
   <path d="m1.3438-8.75h2.7969v8.5938c0 1.1758-0.28125 2.0703-0.84375 2.6875-0.5625 0.61328-1.375 0.92188-2.4375 0.92188h-1.3906v-1.8281h0.48438c0.53125 0 0.89453-0.12109 1.0938-0.35938 0.19531-0.24219 0.29688-0.71484 0.29688-1.4219zm0-3.4062h2.7969v2.2812h-2.7969z"/>
  </symbol>
  <symbol id="l" overflow="visible">
   <path d="m8.4219-8.4844v2.2812c-0.38672-0.25781-0.77344-0.45312-1.1562-0.57812-0.375-0.125-0.77344-0.1875-1.1875-0.1875-0.78125 0-1.3906 0.23047-1.8281 0.6875-0.42969 0.46094-0.64062 1.0938-0.64062 1.9062 0 0.82422 0.21094 1.4648 0.64062 1.9219 0.4375 0.44922 1.0469 0.67188 1.8281 0.67188 0.4375 0 0.85156-0.0625 1.25-0.1875 0.39453-0.13281 0.75781-0.32812 1.0938-0.57812v2.2812c-0.4375 0.16797-0.88672 0.28906-1.3438 0.375-0.44922 0.082031-0.89844 0.125-1.3438 0.125-1.5859 0-2.8242-0.40625-3.7188-1.2188-0.88672-0.8125-1.3281-1.9414-1.3281-3.3906 0-1.4375 0.44141-2.5625 1.3281-3.375 0.89453-0.8125 2.1328-1.2188 3.7188-1.2188 0.45703 0 0.90625 0.042969 1.3438 0.125 0.44531 0.085938 0.89453 0.20312 1.3438 0.35938z"/>
  </symbol>
 </defs>
 <g>
  <path d="m327.82 20.918c28.215 28.031 28.363 73.629 0.33203 101.84-28.031 28.215-73.625 28.363-101.84 0.33203s-28.363-73.625-0.33203-101.84c28.031-28.211 73.629-28.359 101.84-0.33203"/>
  <path d="m597.91 195.71c-44.602-55.984-77.715-82.285-138.87-112.34-44.602-21.602-83.047-3.9609-97.469 20.223-14.426 24.172 4.1523 59.566 33.223 75.508 3.9414 2.6289 8.1133 5.3789 12.41 8.2031-8.0781-21.164-17.34-34.762-18.387-36.262-10.273-14.734-6.6875-35.113 7.9922-45.422 5.5352-3.8906 12.027-5.9453 18.77-5.9453 10.566 0 20.52 5.1484 26.617 13.773 1.0469 1.4805 25.773 36.84 36.973 88.137 3.0508 13.977 4.8203 27.816 5.3594 41.461 5.6055 4.7891 11.047 9.7305 16.27 14.824l-17.156 15.695c-4.2773 42.875-21.344 83.297-50.762 119.32-6.2266 7.625-15.445 12.004-25.301 12.004-1.3008 0-2.5859-0.10547-3.8711-0.26172l88.715 137.11c7.6602 11.836 20.508 18.277 33.629 18.277 7.4453 0 14.98-2.0781 21.695-6.4219 18.551-12.004 23.855-36.77 11.855-55.32l-75.5-116.68 106.52-97.445c3.5898-3.2852 6.3984-7.0898 8.5078-11.172 14.156-19.012 21.52-43.781-1.2227-77.258z"/>
  <path d="m407.58 397.84c7.4219 0 14.785-3.2148 19.848-9.4141 44.047-53.938 59.555-118.03 44.863-185.35-10.898-49.918-34.828-84.141-35.84-85.574-8.1445-11.516-24.047-14.242-35.594-6.1289-11.543 8.1055-14.332 24.062-6.2617 35.633 3.082 4.4219 74.535 109.39-6.8281 209.03-8.9453 10.953-7.3164 27.082 3.6406 36.023 4.7461 3.8867 10.477 5.7773 16.172 5.7773z"/>
  <path d="m156.9 494.74c-38.918 0.91797-69.352 8.9453-69.352 18.711 0 9.1484 26.711 16.77 62.082 18.453 6.8164 10.199 40.656 17.953 81.406 17.953 45.66 0 82.68-9.7344 82.68-21.738 0-8.1133-16.926-15.188-41.992-18.922 0.38281-0.87891 0.64844-1.7695 0.64844-2.6836 0-7.457-13.254-13.949-32.832-17.348 1.5312-75.875 7.6406-245 32.035-325.5l-12.801-2.4023s-68.062 179.27-91.445 330.02c-3.918 1.0195-7.3906 2.1875-10.43 3.4648z"/>
  <path d="m281.99 263.26c-0.24219-16.418-3.9961-52.199-7.9766-52.141-3.9805 0.058593-6.6797 35.938-6.4375 52.352 0.24219 16.418 3.5352 20.969 7.5156 20.914 3.9766-0.058593 7.1367-4.707 6.8984-21.125z"/>
  <path d="m179.67 322.23c3.6875 1.5 8.4102-1.5469 14.598-16.754 6.1875-15.207 16.699-49.613 13.012-51.117-3.6875-1.5-20.18 30.477-26.367 45.684-6.1836 15.211-4.9297 20.688-1.2422 22.188z"/>
  <path d="m315.85 495.93c0 2.8945-8.5977 5.2383-19.203 5.2383s-19.203-2.3438-19.203-5.2383c0-2.8906 8.5977-5.2344 19.203-5.2344s19.203 2.3438 19.203 5.2344"/>
  <path d="m143.02 551.99c0 3.5352-10.508 6.4023-23.469 6.4023-12.961 0-23.469-2.8672-23.469-6.4023 0-3.5352 10.508-6.4023 23.469-6.4023 12.961 0 23.469 2.8672 23.469 6.4023"/>
  <use x="87.546875" y="608.007812" xlink:href="#u"/>
  <use x="99.289062" y="608.007812" xlink:href="#e"/>
  <use x="107.179687" y="608.007812" xlink:href="#b"/>
  <use x="118.035156" y="608.007812" xlink:href="#d"/>
  <use x="128.832031" y="608.007812" xlink:href="#c"/>
  <use x="136.484375" y="608.007812" xlink:href="#b"/>
  <use x="147.335938" y="608.007812" xlink:href="#k"/>
  <use x="164.363281" y="608.007812" xlink:href="#j"/>
  <use x="175.816406" y="608.007812" xlink:href="#g"/>
  <use x="191.820312" y="608.007812" xlink:href="#i"/>
  <use x="204.957031" y="608.007812" xlink:href="#d"/>
  <use x="215.753906" y="608.007812" xlink:href="#f"/>
  <use x="232.71875" y="608.007812" xlink:href="#t"/>
  <use x="245.117187" y="608.007812" xlink:href="#h"/>
  <use x="256.511719" y="608.007812" xlink:href="#a"/>
  <use x="267.503906" y="608.007812" xlink:href="#a"/>
  <use x="278.5" y="608.007812" xlink:href="#f"/>
  <use x="295.460938" y="608.007812" xlink:href="#s"/>
  <use x="305.660156" y="608.007812" xlink:href="#d"/>
  <use x="316.457031" y="608.007812" xlink:href="#g"/>
  <use x="87.546875" y="624.011719" xlink:href="#r"/>
  <use x="94.507812" y="624.011719" xlink:href="#e"/>
  <use x="102.398437" y="624.011719" xlink:href="#a"/>
  <use x="113.394531" y="624.011719" xlink:href="#q"/>
  <use x="135.640625" y="624.011719" xlink:href="#c"/>
  <use x="143.289062" y="624.011719" xlink:href="#h"/>
  <use x="154.679687" y="624.011719" xlink:href="#b"/>
  <use x="171.105469" y="624.011719" xlink:href="#p"/>
  <use x="184.5" y="624.011719" xlink:href="#a"/>
  <use x="195.492188" y="624.011719" xlink:href="#o"/>
  <use x="206.886719" y="624.011719" xlink:href="#f"/>
  <use x="223.847656" y="624.011719" xlink:href="#n"/>
  <use x="235.578125" y="624.011719" xlink:href="#e"/>
  <use x="243.46875" y="624.011719" xlink:href="#a"/>
  <use x="254.464844" y="624.011719" xlink:href="#m"/>
  <use x="259.949219" y="624.011719" xlink:href="#b"/>
  <use x="270.800781" y="624.011719" xlink:href="#l"/>
  <use x="280.289062" y="624.011719" xlink:href="#c"/>
 </g>
</svg>
